<svg width="19" height="21" viewBox="0 0 19 21" fill="none" xmlns="http://www.w3.org/2000/svg">
<path d="M16.5526 15.1307L14.5061 13.8243C14.4724 13.803 14.4353 13.7893 14.3969 13.7839C14.3585 13.7784 14.3194 13.7814 14.2821 13.7926C14.2447 13.8039 14.2097 13.8231 14.179 13.8493C14.1483 13.8755 14.1227 13.9081 14.1034 13.9453L13.7342 14.6528C13.6525 14.8087 13.7008 15.0097 13.8418 15.0999L15.8884 16.4062C15.922 16.4275 15.9591 16.4413 15.9975 16.4467C16.036 16.4522 16.075 16.4492 16.1124 16.4379C16.1498 16.4267 16.1848 16.4074 16.2154 16.3812C16.2461 16.355 16.2718 16.3224 16.291 16.2853L16.6603 15.5777C16.7419 15.4219 16.6918 15.2209 16.5526 15.1307ZM14.1016 7.05469C14.1208 7.09186 14.1465 7.12447 14.1771 7.15066C14.2078 7.17686 14.2428 7.19613 14.2802 7.20736C14.3176 7.2186 14.3566 7.22158 14.3951 7.21615C14.4335 7.21071 14.4706 7.19696 14.5042 7.17568L16.5508 5.86934C16.6918 5.7791 16.74 5.57812 16.6584 5.42227L16.291 4.7168C16.2718 4.67963 16.2461 4.64702 16.2154 4.62082C16.1848 4.59462 16.1498 4.57536 16.1124 4.56412C16.075 4.55289 16.036 4.5499 15.9975 4.55534C15.9591 4.56077 15.922 4.57452 15.8884 4.5958L13.8418 5.90215C13.774 5.94581 13.7247 6.01735 13.7045 6.10113C13.6843 6.18491 13.695 6.27411 13.7342 6.34922L14.1016 7.05469ZM17.3301 9.76172H14.9551C14.7918 9.76172 14.6582 9.90938 14.6582 10.0898V10.9102C14.6582 11.0906 14.7918 11.2383 14.9551 11.2383H17.3301C17.4934 11.2383 17.627 11.0906 17.627 10.9102V10.0898C17.627 9.90938 17.4934 9.76172 17.3301 9.76172ZM11.6134 2.3584C11.5039 2.3584 11.3926 2.39121 11.2905 2.46709L4.71289 7.21875H1.66992C1.50664 7.21875 1.37305 7.36641 1.37305 7.54688V13.4531C1.37305 13.6336 1.50664 13.7812 1.66992 13.7812H4.71289L11.2905 18.5329C11.3926 18.6067 11.5058 18.6416 11.6134 18.6416C11.9232 18.6416 12.209 18.3688 12.209 17.9833V3.0167C12.209 2.63115 11.9232 2.3584 11.6134 2.3584Z" fill="black"/>
</svg>
