<svg width="29" height="28" viewBox="0 0 29 28" fill="none" xmlns="http://www.w3.org/2000/svg">
<path d="M14.5 27.1118C21.6773 27.1118 27.4956 21.4941 27.4956 14.5643C27.4956 7.63455 21.6773 2.01685 14.5 2.01685C7.32273 2.01685 1.50439 7.63455 1.50439 14.5643C1.50439 21.4941 7.32273 27.1118 14.5 27.1118Z" fill="#D68F30"/>
<path d="M2.38794 17.8238V19.1057C2.52388 19.4447 2.67567 19.7794 2.84106 20.1032V17.8238H2.38794Z" fill="#BC6F00"/>
<path d="M3.86975 20.2366V21.7766C4.051 22.0238 4.23905 22.2666 4.43616 22.5006V20.2366H3.86975Z" fill="#BC6F00"/>
<path d="M5.83167 22.249V23.9093C6.05143 24.0997 6.27799 24.2812 6.51135 24.4562V22.249H5.83167Z" fill="#BC6F00"/>
<path d="M8.24683 23.7781V25.5631C8.46886 25.6813 8.69542 25.7928 8.92651 25.9V23.7781H8.24683Z" fill="#BC6F00"/>
<path d="M10.9861 24.7515V26.6415C11.2104 26.7028 11.4369 26.7575 11.6658 26.8078V24.7515H10.9861Z" fill="#BC6F00"/>
<path d="M14.1919 25.0884V27.1031C14.2938 27.1053 14.3958 27.1097 14.5 27.1097C14.6246 27.1097 14.7492 27.1031 14.8716 27.1009V25.0884H14.1919Z" fill="#BC6F00"/>
<path d="M17.3977 24.7363V26.7925C17.6265 26.7422 17.8531 26.6853 18.0774 26.6241V24.7363H17.3977Z" fill="#BC6F00"/>
<path d="M20.1301 23.7497V25.8738C20.3612 25.7666 20.5878 25.6506 20.8098 25.5303V23.7497H20.1301Z" fill="#BC6F00"/>
<path d="M22.5385 22.2075V24.4168C22.7717 24.2409 22.9984 24.057 23.2181 23.8656V22.2075H22.5385Z" fill="#BC6F00"/>
<path d="M25.1688 20.1885H24.6024V22.4525C24.7995 22.2163 24.9898 21.9735 25.1688 21.7241V20.1885Z" fill="#BC6F00"/>
<path d="M26.6415 17.7669H26.1884V20.0507C26.3537 19.7203 26.5055 19.3813 26.6415 19.0378V17.7669Z" fill="#BC6F00"/>
<path d="M14.5 25.9831C21.6773 25.9831 27.4956 20.3654 27.4956 13.4356C27.4956 6.50583 21.6773 0.888123 14.5 0.888123C7.32273 0.888123 1.50439 6.50583 1.50439 13.4356C1.50439 20.3654 7.32273 25.9831 14.5 25.9831Z" fill="#FFF176"/>
<path d="M14.5 24.8653C21.0379 24.8653 26.3379 19.7481 26.3379 13.4356C26.3379 7.12317 21.0379 2.00592 14.5 2.00592C7.96211 2.00592 2.66211 7.12317 2.66211 13.4356C2.66211 19.7481 7.96211 24.8653 14.5 24.8653Z" fill="#F2BC1A"/>
<path d="M2.63944 13.8731C2.55561 12.3681 2.82522 10.8413 3.36897 9.41063C3.93537 7.98438 4.80311 6.66532 5.89741 5.54532C8.09506 3.30094 11.2851 1.99938 14.5 1.98407C17.7149 2.00157 20.9072 3.30094 23.1003 5.54751C24.1969 6.66532 25.0623 7.98657 25.6287 9.41063C26.1747 10.8434 26.4444 12.3681 26.3583 13.8731H26.313C26.3085 12.3718 26.0007 10.8857 25.4067 9.49813C24.8117 8.11217 23.9429 6.85131 22.8488 5.78594C21.754 4.72163 20.453 3.87576 19.0199 3.29657C17.5873 2.71904 16.0502 2.42166 14.4977 2.42166C12.9452 2.42166 11.4082 2.71904 9.97553 3.29657C8.54242 3.87576 7.24139 4.72163 6.14662 5.78594C5.05179 6.85073 4.18289 8.11173 3.58873 9.49813C2.99477 10.8857 2.68694 12.3718 2.68248 13.8731H2.63944Z" fill="#E08F00"/>
<path d="M14.5 0.89032C7.32252 0.89032 1.50439 6.50782 1.50439 13.4378C1.50439 20.3678 7.32252 25.9853 14.5 25.9853C21.6775 25.9853 27.4956 20.3678 27.4956 13.4378C27.4956 6.50782 21.6775 0.89032 14.5 0.89032ZM14.5 24.8675C7.96143 24.8675 2.66213 19.7509 2.66213 13.4378C2.66213 7.12251 7.96143 2.00594 14.5 2.00594C21.0386 2.00594 26.3379 7.12251 26.3379 13.4356C26.3379 19.7488 21.0386 24.8675 14.5 24.8675Z" fill="#FFF176"/>
<path d="M21.5733 10.5437C21.5733 10.4672 7.44035 10.5437 7.44035 10.5437L7.31348 10.9112V11.539C7.31348 11.6528 7.40863 11.7447 7.52645 11.7447H21.4736C21.5914 11.7447 21.6866 11.6528 21.6866 11.539V10.9287L21.5733 10.5437Z" fill="#D38200"/>
<path d="M21.5937 18.7031H7.49926L6.55676 19.1603L6.56809 19.7487C6.57036 19.8122 6.62473 19.8647 6.6927 19.8647H22.3097C22.3754 19.8647 22.432 19.8144 22.4343 19.7487L22.4456 19.1712L21.5937 18.7031Z" fill="#D38200"/>
<path d="M9.77166 16.9137H8.96056C8.82689 16.9137 8.71814 16.5069 8.71814 16.3778L10.0118 16.3384C10.0118 16.4675 9.90306 16.9137 9.77166 16.9137Z" fill="#D38200"/>
<path d="M10.0481 12.6897H8.68196C8.58001 12.6897 8.49165 12.624 8.4622 12.53L8.35571 11.6703H10.3563L10.2656 12.53C10.2384 12.624 10.1501 12.6897 10.0481 12.6897Z" fill="#D38200"/>
<path d="M8.68186 17.174H10.048C10.15 17.174 10.3516 17.2353 10.3788 17.3293C10.3788 17.3293 10.372 17.7384 10.372 17.9003C10.372 18.0621 10.304 18.1803 10.1522 18.1803H8.57764C8.42584 18.1803 8.35787 18.049 8.35787 17.9003C8.35787 17.7515 8.35107 17.3337 8.35107 17.3337C8.38053 17.2396 8.5799 17.174 8.68186 17.174Z" fill="#D38200"/>
<path d="M20.3068 16.9137H19.4957C19.362 16.9137 19.2533 16.5069 19.2533 16.3778L20.547 16.3384C20.547 16.4675 20.4405 16.9137 20.3068 16.9137Z" fill="#D38200"/>
<path d="M20.5833 12.6897H19.2171C19.1152 12.6897 19.0268 12.624 18.9974 12.53L18.8909 11.6703H20.8914L20.8008 12.53C20.7736 12.624 20.6852 12.6897 20.5833 12.6897Z" fill="#D38200"/>
<path d="M19.217 17.174H20.5832C20.6851 17.174 20.8868 17.2353 20.914 17.3293C20.914 17.3293 20.9072 17.7384 20.9072 17.9003C20.9072 18.0621 20.8392 18.1803 20.6874 18.1803H19.1128C18.961 18.1803 18.893 18.049 18.893 17.9003C18.893 17.7515 18.8862 17.3337 18.8862 17.3337C18.9157 17.2396 19.1151 17.174 19.217 17.174Z" fill="#D38200"/>
<path d="M16.7951 16.9137H15.984C15.8503 16.9137 15.7416 16.5069 15.7416 16.3778L17.0352 16.3384C17.0352 16.4675 16.9288 16.9137 16.7951 16.9137Z" fill="#D38200"/>
<path d="M17.0716 12.6897H15.7054C15.6034 12.6897 15.5151 12.624 15.4856 12.53L15.3792 11.6703H17.3797L17.2891 12.53C17.2619 12.624 17.1735 12.6897 17.0716 12.6897Z" fill="#D38200"/>
<path d="M15.7053 17.174H17.0715C17.1734 17.174 17.3751 17.2353 17.4022 17.3293C17.4022 17.3293 17.3954 17.7384 17.3954 17.9003C17.3954 18.0621 17.3275 18.1803 17.1757 18.1803H15.6011C15.4493 18.1803 15.3813 18.049 15.3813 17.9003C15.3813 17.7515 15.3745 17.3337 15.3745 17.3337C15.404 17.2396 15.6033 17.174 15.7053 17.174Z" fill="#D38200"/>
<path d="M13.2834 16.9137H12.4723C12.3386 16.9137 12.2299 16.5069 12.2299 16.3778L13.5235 16.3384C13.5235 16.4675 13.417 16.9137 13.2834 16.9137Z" fill="#D38200"/>
<path d="M13.5599 12.6897H12.1937C12.0917 12.6897 12.0034 12.624 11.9739 12.53L11.8674 11.6703H13.868L13.7774 12.53C13.7502 12.624 13.6618 12.6897 13.5599 12.6897Z" fill="#D38200"/>
<path d="M12.1936 17.174H13.5597C13.6617 17.174 13.8633 17.2353 13.8905 17.3293C13.8905 17.3293 13.8837 17.7384 13.8837 17.9003C13.8837 18.0621 13.8158 18.1803 13.664 18.1803H12.0894C11.9376 18.1803 11.8696 18.049 11.8696 17.9003C11.8696 17.7515 11.8628 17.3337 11.8628 17.3337C11.8922 17.2396 12.0916 17.174 12.1936 17.174Z" fill="#D38200"/>
<path d="M21.6753 9.95748C21.6753 9.88092 21.6345 9.80873 21.5733 9.77373L14.5091 5.90186L7.43582 9.76936C7.36785 9.80873 7.32481 9.88092 7.32481 9.95748L7.31348 10.9134C7.31348 11.0337 7.41543 11.1322 7.54004 11.1322H21.4578C21.5824 11.1322 21.6843 11.0337 21.6843 10.9134L21.6753 9.95748Z" fill="#FFF176"/>
<path d="M19.9013 9.69718L14.5 6.73749L9.09875 9.69718H19.9013Z" fill="#F2BC1A"/>
<path d="M17.9143 9.33624L14.5 7.46375L11.0857 9.33624H17.9143Z" fill="#FFF176"/>
<path d="M21.1586 17.9418H7.84127C7.70987 17.9418 7.58526 17.9965 7.4969 18.0906L6.58159 19.0771C6.51815 19.145 6.56799 19.2521 6.66315 19.2521H22.3367C22.4296 19.2521 22.4795 19.145 22.4183 19.0771L21.5007 18.0906C21.4146 17.9965 21.2878 17.9418 21.1586 17.9418Z" fill="#FFF176"/>
<path d="M20.3068 16.5178H19.4957C19.362 16.5178 19.2533 16.4128 19.2533 16.2837V12.7881C19.2533 12.659 19.362 12.554 19.4957 12.554H20.3068C20.4405 12.554 20.5492 12.659 20.5492 12.7881V16.2859C20.5492 16.415 20.4405 16.5178 20.3068 16.5178Z" fill="#FFF176"/>
<path d="M20.5855 12.2937H19.2193C19.1174 12.2937 19.029 12.2281 18.9996 12.134L18.8953 11.7862C18.8523 11.6462 18.9633 11.5062 19.1151 11.5062H20.6897C20.8415 11.5062 20.9503 11.6462 20.9095 11.7862L20.8053 12.134C20.7758 12.2281 20.6852 12.2937 20.5855 12.2937Z" fill="#FFF176"/>
<path d="M19.217 16.7803H20.5832C20.6851 16.7803 20.7735 16.8459 20.803 16.94L20.9072 17.2878C20.9502 17.4278 20.8392 17.5678 20.6874 17.5678H19.1128C18.961 17.5678 18.8523 17.4278 18.893 17.2878L18.9973 16.94C19.0267 16.8437 19.1173 16.7803 19.217 16.7803Z" fill="#FFF176"/>
<path d="M9.77153 16.5178H8.96044C8.82677 16.5178 8.71802 16.4128 8.71802 16.2837V12.7881C8.71802 12.659 8.82677 12.554 8.96044 12.554H9.77153C9.90521 12.554 10.014 12.659 10.014 12.7881V16.2859C10.0117 16.415 9.90294 16.5178 9.77153 16.5178Z" fill="#FFF176"/>
<path d="M10.048 12.2937H8.68185C8.5799 12.2937 8.49154 12.2281 8.46209 12.134L8.35787 11.7862C8.31482 11.6462 8.42584 11.5062 8.57763 11.5062H10.1522C10.304 11.5062 10.4128 11.6462 10.372 11.7862L10.2678 12.134C10.2383 12.2281 10.15 12.2937 10.048 12.2937Z" fill="#FFF176"/>
<path d="M8.68186 16.7803H10.048C10.15 16.7803 10.2383 16.8459 10.2678 16.94L10.372 17.2878C10.4151 17.4278 10.304 17.5678 10.1523 17.5678H8.57764C8.42585 17.5678 8.3171 17.4278 8.35788 17.2878L8.4621 16.94C8.49155 16.8437 8.57991 16.7803 8.68186 16.7803Z" fill="#FFF176"/>
<path d="M13.2833 16.5178H12.4722C12.3385 16.5178 12.2297 16.4128 12.2297 16.2837V12.7881C12.2297 12.659 12.3385 12.554 12.4722 12.554H13.2833C13.4169 12.554 13.5257 12.659 13.5257 12.7881V16.2859C13.5251 16.3476 13.4993 16.4066 13.4539 16.45C13.4085 16.4934 13.3472 16.5178 13.2833 16.5178Z" fill="#FFF176"/>
<path d="M13.5597 12.2937H12.1936C12.0916 12.2937 12.0033 12.2281 11.9738 12.134L11.8696 11.7862C11.8265 11.6462 11.9376 11.5062 12.0894 11.5062H13.664C13.8158 11.5062 13.9245 11.6462 13.8837 11.7862L13.7795 12.134C13.7501 12.2281 13.6617 12.2937 13.5597 12.2937Z" fill="#FFF176"/>
<path d="M12.1936 16.7803H13.5598C13.6617 16.7803 13.7501 16.8459 13.7795 16.94L13.8837 17.2878C13.9268 17.4278 13.8158 17.5678 13.664 17.5678H12.0894C11.9376 17.5678 11.8288 17.4278 11.8696 17.2878L11.9738 16.94C12.0033 16.8437 12.0916 16.7803 12.1936 16.7803Z" fill="#FFF176"/>
<path d="M16.7951 16.5178H15.984C15.8503 16.5178 15.7416 16.4128 15.7416 16.2837V12.7881C15.7416 12.659 15.8503 12.554 15.984 12.554H16.7951C16.9288 12.554 17.0375 12.659 17.0375 12.7881V16.2859C17.0369 16.3476 17.0111 16.4066 16.9657 16.45C16.9203 16.4934 16.859 16.5178 16.7951 16.5178Z" fill="#FFF176"/>
<path d="M17.0715 12.2937H15.7053C15.6033 12.2937 15.515 12.2281 15.4855 12.134L15.3813 11.7862C15.3383 11.6462 15.4493 11.5062 15.6011 11.5062H17.1757C17.3275 11.5062 17.4362 11.6462 17.3954 11.7862L17.2912 12.134C17.2618 12.2281 17.1734 12.2937 17.0715 12.2937Z" fill="#FFF176"/>
<path d="M15.7053 16.7803H17.0715C17.1734 16.7803 17.2618 16.8459 17.2912 16.94L17.3955 17.2878C17.4385 17.4278 17.3275 17.5678 17.1757 17.5678H15.6011C15.4493 17.5678 15.3405 17.4278 15.3813 17.2878L15.4855 16.94C15.515 16.8437 15.6056 16.7803 15.7053 16.7803Z" fill="#FFF176"/>
</svg>
