<svg width="25" height="25" viewBox="0 0 25 25" fill="none" xmlns="http://www.w3.org/2000/svg">
<g clip-path="url(#clip0)">
<path d="M22.2222 3.47223H2.77778C2.04107 3.47223 1.33453 3.76489 0.813592 4.28582C0.292658 4.80676 0 5.51329 0 6.25001L0 18.75C0 19.4867 0.292658 20.1933 0.813592 20.7142C1.33453 21.2351 2.04107 21.5278 2.77778 21.5278H22.2222C22.9589 21.5278 23.6655 21.2351 24.1864 20.7142C24.7073 20.1933 25 19.4867 25 18.75V6.25001C25 5.51329 24.7073 4.80676 24.1864 4.28582C23.6655 3.76489 22.9589 3.47223 22.2222 3.47223Z" fill="#EEEEEE"/>
<path d="M14.5833 3.47223H10.4167V10.4167H0V14.5833H10.4167V21.5278H14.5833V14.5833H25V10.4167H14.5833V3.47223Z" fill="#CE1124"/>
</g>
<defs>
<clipPath id="clip0">
<rect width="25" height="25" fill="white"/>
</clipPath>
</defs>
</svg>
