<svg width="25" height="28" viewBox="0 0 25 28" fill="none" xmlns="http://www.w3.org/2000/svg">
<path d="M24.6472 9.50438L12.8674 0.19386C12.7062 0.0666148 12.5077 -0.00164737 12.3039 3.01973e-05C12.1001 0.00170776 11.9028 0.073228 11.7435 0.203111L0.340429 9.51327C0.234234 9.60021 0.148516 9.71038 0.0895966 9.83565C0.030677 9.96091 5.89472e-05 10.0981 7.24284e-08 10.237V27.0731C-4.75715e-05 27.1948 0.0234107 27.3154 0.0690338 27.4279C0.114657 27.5403 0.181551 27.6425 0.265892 27.7286C0.350233 27.8147 0.450369 27.883 0.560575 27.9295C0.670781 27.9761 0.788898 28 0.908174 28H7.68667C7.92751 27.9999 8.15845 27.9022 8.32874 27.7284C8.49904 27.5546 8.59475 27.3189 8.59485 27.0731V16.7646H16.4041V27.0731C16.4041 27.3189 16.4997 27.5547 16.6701 27.7285C16.8404 27.9023 17.0714 28 17.3122 28H24.0918C24.3327 27.9999 24.5636 27.9022 24.7339 27.7284C24.9042 27.5546 24.9999 27.3189 25 27.0731V10.237C25.0001 10.0955 24.9683 9.95583 24.9072 9.82881C24.846 9.70178 24.7571 9.59079 24.6472 9.50438Z" fill="black"/>
</svg>
