<svg width="25" height="25" viewBox="0 0 25 25" fill="none" xmlns="http://www.w3.org/2000/svg">
<g clip-path="url(#clip0)">
<path d="M0 18.75C0 19.4867 0.292658 20.1933 0.813592 20.7142C1.33453 21.2351 2.04107 21.5278 2.77778 21.5278H22.2222C22.9589 21.5278 23.6655 21.2351 24.1864 20.7142C24.7073 20.1933 25 19.4867 25 18.75V15.9722H0V18.75Z" fill="#DA0001"/>
<path d="M0 9.02777H25V15.9722H0V9.02777Z" fill="#EEEEEE"/>
<path d="M25 9.02778V6.25001C25 5.51329 24.7073 4.80676 24.1864 4.28582C23.6655 3.76489 22.9589 3.47223 22.2222 3.47223H2.77778C2.04107 3.47223 1.33453 3.76489 0.813592 4.28582C0.292658 4.80676 0 5.51329 0 6.25001L0 9.02778H25Z" fill="#239F40"/>
<path d="M0 15.9722H25V16.6667H0V15.9722Z" fill="#E96667"/>
<path d="M13.5173 10.3951C14.1819 10.7354 15.6271 12.4458 14.0715 14.375C15.0375 14.1611 16.2673 11.3139 13.5173 10.3951ZM11.4778 10.3951C8.72846 11.3139 9.95763 14.1611 10.9236 14.375C9.36804 12.4458 10.8132 10.7354 11.4778 10.3951ZM12.4868 10.2958C12.5146 10.4326 13.2514 10.5986 13.1632 9.89792C13.0465 10.1813 12.709 10.1729 12.491 10.0417C12.191 10.209 11.9111 10.1681 11.8048 9.88403C11.7021 10.4076 12.2125 10.5611 12.4868 10.2958Z" fill="#BE1931"/>
<path d="M14.2625 12.4333C14.2521 11.5667 13.7924 10.8 13.3396 10.4896C13.6382 10.8556 14.5562 12.8757 12.7944 14.2056L12.8271 10.666L12.4972 10.3757L12.1674 10.6521L12.2229 14.2257L12.2104 14.2153C10.4306 12.8861 11.3542 10.8563 11.6535 10.4896C11.2007 10.8 10.7403 11.5667 10.7306 12.4333C10.7215 13.1771 11.0618 13.991 12.0042 14.659C11.6237 14.7571 11.2318 14.804 10.8389 14.7986C11.1611 14.9743 11.7694 14.932 12.2326 14.8896L12.2333 14.9368L12.5097 15.2403L12.7875 14.9243V14.8882C13.2542 14.9313 13.8757 14.9778 14.2035 14.7993C13.7976 14.806 13.3928 14.7562 13.0007 14.6514C13.934 13.984 14.2715 13.1743 14.2625 12.4333Z" fill="#BE1931"/>
<path d="M0 8.33333H25V9.02777H0V8.33333Z" fill="#7BC58C"/>
</g>
<defs>
<clipPath id="clip0">
<rect width="25" height="25" fill="white"/>
</clipPath>
</defs>
</svg>
