<svg width="33" height="33" viewBox="0 0 33 33" fill="none" xmlns="http://www.w3.org/2000/svg">
<path d="M10.3714 12.4431H13.0939C13.0939 10.8322 14.0386 9.58856 15.8989 9.58856C17.3117 9.58856 18.607 10.296 18.607 11.9976C18.607 13.3072 17.8356 13.9095 16.6167 14.8253C15.2286 15.8338 14.1293 17.0115 14.2077 18.9234L14.2221 19.8784H16.9178V19.1462C16.9178 17.6653 17.4809 17.2342 19.0009 16.0813C20.257 15.1264 21.5667 14.0663 21.5667 11.8408C21.5667 8.72438 18.9349 7.21875 16.0536 7.21875C13.3187 7.21875 10.3075 8.55319 10.3735 12.4431H10.3714ZM13.5931 23.8198C13.5931 24.9191 14.4696 25.7317 15.6762 25.7317C16.9322 25.7317 17.7964 24.9191 17.7964 23.8198C17.7964 22.6813 16.9302 21.8811 15.6741 21.8811C14.4696 21.8811 13.5931 22.6813 13.5931 23.8198V23.8198Z" fill="black"/>
</svg>
