<svg width="37" height="36" viewBox="0 0 37 36" fill="none" xmlns="http://www.w3.org/2000/svg">
<path d="M37 23.4563L36.4797 22.05C36.075 22.2188 35.6125 21.9938 35.4969 21.6C35.3234 21.2063 35.5547 20.7563 35.9594 20.6438L35.3812 19.125C34.9766 19.2938 34.5141 19.0688 34.3984 18.675C34.225 18.2813 34.4562 17.8313 34.8609 17.7188L34.3406 16.3125C33.9359 16.4813 33.4734 16.2563 33.3578 15.8625C33.1844 15.4688 33.4156 15.0188 33.8203 14.9063L33.3 13.5C32.8953 13.6125 32.4906 13.4438 32.3172 13.1063C30.7563 13.275 29.1953 12.4313 28.675 10.9125L7.05313 18.45C7.68906 20.1938 6.76407 22.1063 4.97188 22.7813L9.19219 33.975C10.9844 33.3563 12.95 34.2563 13.6438 36L35.2078 28.35C34.6297 26.8313 35.2656 25.2 36.5953 24.3563C36.4219 24.0188 36.5953 23.5688 37 23.4563Z" fill="#FAD22E"/>
<path d="M32.7219 26.2687L14.1063 32.85C13.1234 33.1875 12.025 32.6812 11.6203 31.725L8.325 22.8937C7.97813 21.9375 8.49844 20.8687 9.48125 20.475L28.0969 13.8937C29.0797 13.5562 30.1781 14.0625 30.5828 15.0187L33.8781 23.85C34.225 24.8625 33.7047 25.9312 32.7219 26.2687ZM9.82813 21.4312C9.30782 21.6 9.07657 22.1625 9.25 22.6125L12.5453 31.4437C12.7188 31.95 13.2969 32.175 13.7594 32.0062L32.375 25.425C32.8953 25.2562 33.1266 24.6937 32.9531 24.2437L29.6578 15.4125C29.4844 14.9062 28.9063 14.6812 28.4438 14.85L9.82813 21.4312Z" fill="#FF5555"/>
<path d="M17.8641 24.2437L17.3438 24.4125C17.2859 24.4125 17.2281 24.4125 17.2281 24.3562L16.9391 23.7937L16.5922 23.9062L16.7656 24.525C16.7656 24.5812 16.7656 24.6375 16.7078 24.6375L16.1875 24.8062C16.1297 24.8062 16.1297 24.8062 16.0719 24.75L15.0891 20.8687C15.0891 20.8125 15.0891 20.7562 15.1469 20.7562L15.8984 20.475C15.9563 20.475 16.0141 20.475 16.0141 20.5312L17.8641 24.1312C17.9219 24.1875 17.9219 24.2437 17.8641 24.2437ZM16.65 23.175L15.9563 21.7125H15.8984L16.3609 23.2312L16.65 23.175Z" fill="#89664C"/>
<path d="M18.9625 20.8687L19.6562 22.7812C19.7719 23.175 19.5984 23.5687 19.1937 23.7375L18.3266 24.0187C18.2688 24.0187 18.2109 24.0187 18.2109 23.9625L17.0547 20.8125C17.0547 20.7562 17.0547 20.7 17.1125 20.7L17.9797 20.4187C18.3844 20.3062 18.8469 20.475 18.9625 20.8687ZM18.3266 21.15C18.3266 21.0937 18.2109 21.0375 18.1531 21.0375L17.9219 21.0937L18.7313 23.2312L18.9047 23.175C18.9625 23.175 19.0203 23.0625 18.9625 23.0062L18.3266 21.15Z" fill="#89664C"/>
<path d="M21.3906 19.2937L22.6047 22.4437C22.6047 22.5 22.6047 22.5562 22.5469 22.5562L22.0266 22.725C21.9688 22.725 21.9109 22.725 21.9109 22.6687L21.3328 21.2062L21.4484 22.6687C21.4484 22.725 21.3906 22.725 21.3906 22.6687L20.5234 21.4875L21.1016 22.95C21.1016 23.0062 21.1016 23.0625 21.0438 23.0625L20.5234 23.2312C20.4656 23.2312 20.4078 23.2312 20.4078 23.175L19.1938 20.025C19.1938 19.9687 19.1938 19.9125 19.2516 19.9125L19.7141 19.7437C19.7719 19.7437 19.8297 19.7437 19.8297 19.8L20.9281 21.375L20.7547 19.5187C20.7547 19.4625 20.7547 19.4062 20.8125 19.4062L21.275 19.2375C21.3328 19.2375 21.3906 19.2375 21.3906 19.2937Z" fill="#89664C"/>
<path d="M23.7609 22.05C23.7609 22.1063 23.7609 22.1625 23.7031 22.1625L23.1828 22.3313C23.125 22.3313 23.0672 22.3312 23.0672 22.275L21.9109 19.125C21.9109 19.0688 21.9109 19.0125 21.9687 19.0125L22.4891 18.8438C22.5469 18.8438 22.6047 18.8437 22.6047 18.9L23.7609 22.05Z" fill="#89664C"/>
<path d="M24.6281 18.1687L24.8016 18.675C24.8016 18.7312 24.8016 18.7875 24.7438 18.7875L24.3391 18.9562L25.3219 21.5437C25.3219 21.6 25.3219 21.6562 25.2641 21.6562L24.7438 21.825C24.6859 21.825 24.6281 21.825 24.6281 21.7687L23.7031 19.125L23.2984 19.2937C23.2406 19.2937 23.1828 19.2937 23.1828 19.2375L23.0094 18.7312C23.0094 18.675 23.0094 18.6187 23.0672 18.6187L24.5125 18.1125C24.5703 18.1125 24.6281 18.1125 24.6281 18.1687Z" fill="#89664C"/>
<path d="M20.6391 28.2937L20.4078 28.35C20.0031 28.4625 19.5984 28.2937 19.425 27.9L18.5 25.3125C18.3844 24.9187 18.5578 24.525 18.9625 24.3562L19.1938 24.3C19.5984 24.1875 20.0031 24.3562 20.1766 24.75L21.1594 27.3375C21.275 27.675 21.0438 28.125 20.6391 28.2937ZM19.3094 24.9187C19.1938 24.975 19.1359 25.0312 19.1938 25.1437L20.1188 27.675C20.1188 27.7312 20.2344 27.7875 20.2922 27.7312H20.35C20.4078 27.7312 20.4656 27.6187 20.4656 27.5625L19.5406 25.0312C19.4828 24.9187 19.3672 24.9187 19.3094 24.9187Z" fill="#89664C"/>
<path d="M22.4313 23.9062L23.6453 27.0562C23.6453 27.1125 23.6453 27.1687 23.5875 27.1687L23.2406 27.2812C23.1828 27.2812 23.125 27.2812 23.125 27.225L21.9688 25.9875L22.4891 27.45C22.4891 27.5062 22.4891 27.5625 22.4313 27.5625L21.9109 27.7312C21.8531 27.7312 21.7953 27.7312 21.7953 27.675L20.5813 24.525C20.5813 24.4687 20.5813 24.4125 20.6391 24.4125L21.0438 24.3C21.1016 24.3 21.1594 24.3 21.1594 24.3562L22.3734 25.7625L21.7953 24.1312C21.7953 24.075 21.7953 24.0187 21.8531 24.0187L22.3734 23.85C22.3734 23.85 22.4313 23.85 22.4313 23.9062Z" fill="#89664C"/>
<path d="M25.3219 25.9312L25.4953 26.4375C25.4953 26.4937 25.4953 26.55 25.4375 26.55L24.2234 27C24.1656 27 24.1078 27 24.1078 26.9437L22.8938 23.7937C22.8938 23.7375 22.8938 23.6812 22.9516 23.6812L24.1656 23.2312C24.2234 23.2312 24.2813 23.2312 24.2813 23.2875L24.4547 23.7937C24.4547 23.85 24.4547 23.9062 24.3969 23.9062L23.7609 24.1312L23.9922 24.75L24.5703 24.525C24.6281 24.525 24.6859 24.525 24.6859 24.5812L24.8594 25.0875C24.8594 25.1437 24.8594 25.2 24.8016 25.2L24.2234 25.425L24.5125 26.1562L25.1484 25.9312C25.2641 25.875 25.3219 25.875 25.3219 25.9312Z" fill="#89664C"/>
<g opacity="0.5">
<path opacity="0.5" d="M14.6844 30.825L32.2594 16.4813C31.3922 15.4688 31.2766 14.175 31.7391 13.05C30.3516 12.9938 29.1375 12.15 28.6172 10.8563L7.05313 18.45C7.68907 20.1938 6.76407 22.1063 4.97188 22.7813L6.30157 26.3813L9.77032 30.4313C11.2734 29.1938 13.4125 29.4188 14.6844 30.825Z" fill="#947151"/>
<path opacity="0.5" d="M14.6844 30.825L32.2594 16.4813C31.3922 15.4688 31.2766 14.175 31.7391 13.05C30.3516 12.9938 29.1375 12.15 28.6172 10.8563L7.05313 18.45C7.68907 20.1938 6.76407 22.1063 4.97188 22.7813L6.30157 26.3813L9.77032 30.4313C11.2734 29.1938 13.4125 29.4188 14.6844 30.825Z" fill="#947151"/>
</g>
<path d="M30.3516 9.05625L29.3687 7.875C29.0219 8.15625 28.5594 8.1 28.2703 7.7625C27.9813 7.425 28.0391 6.975 28.3859 6.69375L27.4031 5.5125C27.0563 5.79375 26.5938 5.7375 26.3047 5.4C26.0156 5.0625 26.0734 4.6125 26.4203 4.33125L25.4375 3.15C25.0906 3.43125 24.6281 3.375 24.3391 3.0375C23.9344 2.8125 23.9922 2.3625 24.2812 2.08125L23.2984 0.9C22.9516 1.18125 22.4891 1.125 22.2 0.84375C20.8125 1.51875 19.0781 1.2375 17.9797 0L0.404687 14.3438C1.67656 15.8062 1.44531 17.9438 0 19.125L7.8625 28.2937C9.30781 27.1125 11.5047 27.2812 12.7188 28.6875L30.2938 14.3438C29.2531 13.1062 29.2531 11.3625 30.1781 10.125C30.0047 9.7875 30.0625 9.3375 30.3516 9.05625Z" fill="#FAD22E"/>
<path d="M27.2875 13.1625L12.1406 25.5375C11.3312 26.2125 10.1172 26.1 9.42343 25.3125L3.2375 18.1125C2.54375 17.325 2.65937 16.1438 3.46875 15.4688L18.6156 3.09376C19.425 2.41876 20.6391 2.53126 21.3328 3.31876L27.5187 10.5188C28.2125 11.3063 28.0969 12.4875 27.2875 13.1625ZM4.10468 16.2C3.7 16.5375 3.64218 17.1 3.98906 17.4938L10.175 24.75C10.5219 25.1438 11.1 25.2 11.5047 24.8625L26.6516 12.4875C27.0562 12.15 27.1141 11.5875 26.7672 11.1938L20.5812 3.93751C20.2344 3.54376 19.6562 3.48751 19.2516 3.82501L4.10468 16.2Z" fill="#FF5555"/>
<path d="M12.6609 16.2L12.2563 16.5375C12.1984 16.5937 12.1406 16.5375 12.1406 16.5375L11.6781 16.0875L11.3313 16.3125L11.7359 16.8187V16.9312L11.3313 17.2687C11.2734 17.325 11.2734 17.2687 11.2156 17.2687L8.96094 13.95V13.8375L9.59688 13.3312C9.65469 13.275 9.7125 13.275 9.7125 13.3312L12.6609 16.0875V16.2ZM11.1578 15.5812L10.0016 14.4L9.94375 14.4562L10.9266 15.75L11.1578 15.5812Z" fill="#89664C"/>
<path d="M12.4875 12.6562L13.8172 14.2312C14.1062 14.5687 14.0484 15.0187 13.7016 15.3L13.0078 15.8625C12.95 15.9187 12.8922 15.8625 12.8922 15.8625L10.6375 13.275C10.5797 13.2187 10.6375 13.1625 10.6375 13.1625L11.3312 12.6C11.7359 12.3187 12.1984 12.3187 12.4875 12.6562ZM11.9672 13.1062C11.9094 13.05 11.7937 13.05 11.7359 13.1062L11.5625 13.2187L13.0656 14.9625L13.2391 14.85C13.2969 14.7937 13.2969 14.7375 13.2391 14.625L11.9672 13.1062Z" fill="#89664C"/>
<path d="M14.2219 10.35L16.4766 12.9375C16.5344 12.9937 16.4766 13.05 16.4766 13.05L16.0141 13.3875C15.9562 13.4437 15.8984 13.3875 15.8984 13.3875L14.8578 12.2062L15.4937 13.5562C15.4937 13.6125 15.4937 13.6125 15.4359 13.6125L14.2219 12.7687L15.2625 13.95C15.3203 14.0062 15.2625 14.0625 15.2625 14.0625L14.8 14.4C14.7422 14.4562 14.6844 14.4 14.6844 14.4L12.4297 11.8125C12.3719 11.7562 12.4297 11.7 12.4297 11.7L12.8344 11.3625C12.8922 11.3062 12.95 11.3625 12.95 11.3625L14.5109 12.4312L13.7016 10.7437V10.6312L14.1062 10.2937C14.1641 10.35 14.2219 10.35 14.2219 10.35Z" fill="#89664C"/>
<path d="M17.4594 12.15C17.5172 12.2062 17.4594 12.2625 17.4594 12.2625L17.0547 12.6C16.9969 12.6562 16.9391 12.6 16.9391 12.6L14.6844 10.0125C14.6266 9.95623 14.6844 9.89998 14.6844 9.89998L15.0891 9.56248C15.1469 9.50623 15.2047 9.56248 15.2047 9.56248L17.4594 12.15Z" fill="#89664C"/>
<path d="M16.8812 8.21249L17.2281 8.60624C17.2859 8.66249 17.2281 8.71874 17.2281 8.71874L16.8812 8.99999L18.7312 11.1375C18.7891 11.1937 18.7312 11.25 18.7312 11.25L18.3266 11.5875H18.2109L16.3609 9.44999L16.0141 9.73124C15.9562 9.78749 15.8984 9.73124 15.8984 9.73124L15.5516 9.33749C15.4937 9.28124 15.5516 9.22499 15.5516 9.22499L16.7656 8.26874C16.7656 8.21249 16.8234 8.21249 16.8812 8.21249Z" fill="#89664C"/>
<path d="M16.7078 19.0687L16.5344 19.2375C16.1875 19.5187 15.725 19.4625 15.4359 19.125L13.6437 17.0437C13.3547 16.7062 13.4125 16.2562 13.7594 15.975L13.9328 15.8062C14.2797 15.525 14.7422 15.5812 15.0312 15.9187L16.7656 18C17.0547 18.3375 16.9969 18.7875 16.7078 19.0687ZM14.2219 16.3687C14.1062 16.425 14.1062 16.5375 14.1641 16.5937L15.9562 18.6187C16.0141 18.675 16.0719 18.675 16.1875 18.6187L16.2453 18.5625C16.3031 18.5062 16.3031 18.3937 16.2453 18.3375L14.4531 16.3687C14.3953 16.3125 14.2797 16.3125 14.2219 16.3687Z" fill="#89664C"/>
<path d="M16.8234 14.3438L19.0781 16.9313C19.1359 16.9875 19.0781 17.0437 19.0781 17.0437L18.7891 17.2688C18.7313 17.325 18.6734 17.325 18.6734 17.2688L17.1703 16.4812L18.2109 17.6625C18.2688 17.7188 18.2109 17.775 18.2109 17.775L17.8063 18.1125C17.7484 18.1688 17.6906 18.1125 17.6906 18.1125L15.4359 15.525C15.3781 15.4688 15.4359 15.4125 15.4359 15.4125L15.725 15.1875C15.7828 15.1313 15.8406 15.1313 15.8406 15.1875L17.4594 16.0875L16.3031 14.7937C16.2453 14.7375 16.3031 14.6813 16.3031 14.6813L16.7078 14.3438H16.8234Z" fill="#89664C"/>
<path d="M20.2344 15.3L20.5812 15.6937C20.6391 15.75 20.5812 15.8062 20.5812 15.8062L19.5984 16.65C19.5406 16.7062 19.4828 16.65 19.4828 16.65L17.2281 14.0625C17.1703 14.0062 17.2281 13.95 17.2281 13.95L18.2109 13.1062C18.2687 13.05 18.3266 13.1062 18.3266 13.1062L18.6734 13.5C18.7312 13.5562 18.6734 13.6125 18.6734 13.6125L18.1531 14.0625L18.6156 14.5687L19.0781 14.175C19.1359 14.1187 19.1937 14.175 19.1937 14.175L19.5406 14.5687C19.5984 14.625 19.5406 14.6812 19.5406 14.6812L19.0781 15.075L19.5984 15.6937L20.1187 15.2437C20.1766 15.2437 20.2344 15.2437 20.2344 15.3Z" fill="#89664C"/>
</svg>
