<svg width="166" height="171" viewBox="0 0 166 171" fill="none" xmlns="http://www.w3.org/2000/svg">
<path d="M82.2188 159.358C46.0359 159.358 7 135.979 7 84.6789C7 33.3789 46.0359 10 82.2188 10C102.32 10 120.866 16.8133 134.613 29.2375C149.527 42.8641 157.438 62.1016 157.438 84.6789C157.438 107.256 149.527 126.36 134.613 139.987C120.866 152.411 102.191 159.358 82.2188 159.358Z" fill="url(#paint0_radial)"/>
<path d="M144.589 39.6373C151.501 51.1263 155.106 64.8063 155.106 80.0227C155.106 102.6 147.195 121.704 132.281 135.33C118.534 147.755 99.8594 154.702 79.8875 154.702C56.4659 154.702 31.9031 144.882 17.4041 124.055C31.3584 147.648 57.6072 158.709 82.4812 158.709C102.453 158.709 121.128 151.763 134.875 139.338C149.789 125.712 157.7 106.608 157.7 84.0305C157.7 67.0106 153.2 51.8878 144.589 39.6373Z" fill="#EB8F00"/>
<path class="left-eye" d="M63.5469 76.0015L63.3523 75.7343L62.7947 74.9995L62.1073 74.2381C61.822 73.9041 61.4848 73.5834 61.1606 73.2361C60.8364 72.8888 60.4344 72.5548 60.0712 72.2742C59.7341 72.007 59.3709 71.7532 58.9819 71.5528C58.7225 71.4059 58.4372 71.2856 58.1389 71.2188C58.0486 71.2055 57.9569 71.2055 57.8666 71.2188H57.6461H57.9962H57.283C57.0884 71.2188 57.2181 71.2188 57.283 71.2188H57.3867C57.4905 71.2188 57.3867 71.2188 57.3867 71.2188H57.2441C56.9458 71.2856 56.6605 71.3925 56.3881 71.5528C56.012 71.7666 55.6359 72.007 55.2987 72.2742C54.9226 72.5681 54.5595 72.8888 54.2223 73.2361C53.535 73.9174 52.9255 74.572 52.5364 75.0931L51.862 75.8946L51.5637 76.2553C50.6602 77.293 49.4163 77.9502 48.071 78.1007C46.7257 78.2511 45.3739 77.8841 44.2753 77.0702C43.5638 76.5598 43.0071 75.8523 42.6698 75.0296C42.3324 74.2068 42.2281 73.3025 42.3689 72.4212C42.3689 72.4212 42.4597 71.8868 42.7061 70.9383C43.0951 69.589 43.6398 68.2798 44.3272 67.0507C45.4295 65.0468 46.9209 63.2967 48.7106 61.9073C49.8908 60.9722 51.2006 60.2241 52.6012 59.703C52.9903 59.5427 53.3923 59.4225 53.7944 59.3156C54.2223 59.182 54.6503 59.0885 55.0912 59.0084L55.8823 58.8881L56.5437 58.808H58.943C59.3839 58.808 59.8119 58.9282 60.2398 58.995C61.0698 59.142 61.8998 59.3691 62.6909 59.6763C64.0916 60.1973 65.4014 60.9455 66.5816 61.8806C68.3712 63.27 69.8627 65.0201 70.965 67.024C71.367 67.7187 71.7172 68.4534 72.0025 69.2016C72.2489 69.8027 72.4564 70.4039 72.625 71.0318C72.7158 71.3524 72.7936 71.6731 72.8325 71.9937V72.3277C73.2216 75.053 71.38 77.5913 68.7344 77.992C68.6695 78.0054 68.6047 78.0054 68.5398 78.0188C66.6464 78.2993 64.753 77.5245 63.5469 76.0015Z" fill="#422B0D"/>
<path class="right-eye" d="M114.722 76.0015L114.514 75.7343L113.956 74.9995L113.269 74.238C112.984 73.9041 112.647 73.5834 112.322 73.2361C111.998 72.8887 111.596 72.5548 111.233 72.2742C110.896 72.007 110.533 71.7532 110.144 71.5528C109.884 71.4059 109.599 71.2856 109.301 71.2188C109.21 71.2055 109.119 71.2055 109.028 71.2188H108.808H109.158H108.445C108.25 71.2188 108.38 71.2188 108.445 71.2188H108.548C108.652 71.2188 108.548 71.2188 108.548 71.2188H108.406C108.107 71.2856 107.822 71.3925 107.55 71.5528C107.174 71.7532 106.811 72.007 106.473 72.2742C106.084 72.5681 105.721 72.8887 105.384 73.2361C104.697 73.9174 104.087 74.572 103.698 75.093L103.024 75.8946L102.738 76.2553C101.832 77.2932 100.586 77.9503 99.239 78.1007C97.8917 78.251 96.538 77.8841 95.437 77.0702C94.7255 76.5598 94.1689 75.8523 93.8315 75.0296C93.4941 74.2068 93.3898 73.3025 93.5306 72.4212C93.5306 72.4212 93.6214 71.8868 93.8808 70.9383C94.2698 69.5756 94.8016 68.2664 95.5019 67.0507C96.6042 65.0468 98.0827 63.2967 99.8723 61.9073C101.053 60.9722 102.362 60.2241 103.763 59.703C104.152 59.5427 104.554 59.4225 104.956 59.3156C105.384 59.182 105.812 59.0885 106.253 59.0084L107.057 58.8881L107.705 58.808H110.105C110.546 58.808 110.974 58.9282 111.402 58.995C112.245 59.142 113.062 59.3691 113.853 59.6763C115.253 60.1973 116.563 60.9455 117.743 61.8806C119.533 63.27 121.024 65.0201 122.127 67.024C122.529 67.7187 122.879 68.4534 123.164 69.2016C123.411 69.7894 123.618 70.3905 123.787 71.0051C123.877 71.3257 123.955 71.6463 123.994 71.967V72.3009C124.192 73.6101 123.877 74.9465 123.118 76.0162C122.359 77.086 121.219 77.8015 119.948 78.0054C119.909 78.0054 119.87 78.0188 119.831 78.0188C117.899 78.3527 115.941 77.5779 114.722 76.0015Z" fill="#422B0D"/>
<path d="M132.372 95.6799C131.495 94.0471 130.076 92.7946 128.376 92.1517C126.675 91.5089 124.806 91.5188 123.112 92.1797C109.804 96.1731 96.0055 98.1664 82.1441 98.0979C68.2826 98.1664 54.4842 96.1731 41.1758 92.1797C39.4865 91.5183 37.6225 91.5053 35.9247 92.1431C34.2268 92.7808 32.8085 94.0268 31.9291 95.6531C30.1653 99.0063 31.4363 102.894 32.9277 106.247C41.2536 125.084 59.6044 136.359 82.0403 136.426H82.2478C104.684 136.426 123.035 125.084 131.373 106.247C132.852 102.867 134.136 99.0331 132.372 95.6799Z" fill="#422B0D"/>
<path d="M102.907 131.109C102.427 130.655 101.934 130.241 101.442 129.773C96.1464 124.976 89.2981 122.397 82.2478 122.546C74.9853 122.425 67.9173 124.91 62.25 129.586C61.7572 130 61.2384 130.401 60.7586 130.922C60.2788 131.443 60.0194 131.817 59.7081 132.258C66.8409 135.13 74.4406 136.6 82.1052 136.56H82.3127C89.653 136.56 96.9284 135.21 103.802 132.552C103.543 132.044 103.244 131.563 102.907 131.109Z" fill="#ED7770"/>
<path d="M123.112 92.1797C109.804 96.1731 96.0055 98.1664 82.1441 98.0979C68.2827 98.1664 54.4842 96.1731 41.1758 92.1797C39.4865 91.5183 37.6225 91.5053 35.9247 92.1431C34.2268 92.7808 32.8085 94.0268 31.9291 95.6531C31.6697 96.1608 31.4622 96.6952 31.3325 97.2429C31.7605 97.47 32.2533 97.6971 32.8369 97.9376C48.4507 105.991 65.7079 110.082 83.1686 109.868C99.9113 110.068 116.459 106.314 131.581 98.9128C132.19 98.6456 132.696 98.3918 133.15 98.1513C133.046 97.283 132.774 96.428 132.372 95.6531C131.493 94.0233 130.072 92.7749 128.371 92.1369C126.67 91.4988 124.803 91.514 123.112 92.1797Z" fill="white"/>
<path d="M132.424 95.6932C131.534 94.0565 130.104 92.8023 128.393 92.1578C126.683 91.5133 124.805 91.5211 123.099 92.1797C109.793 96.1742 95.9947 98.1647 82.1441 98.0979C68.2826 98.1664 54.4842 96.1731 41.1758 92.1797C39.4865 91.5183 37.6225 91.5053 35.9247 92.1431C34.2268 92.7808 32.8085 94.0268 31.9291 95.6531C30.1653 99.0063 31.4363 102.894 32.9277 106.247C33.5891 107.757 34.3283 109.24 35.1453 110.669C35.1453 110.669 32.4219 100.275 34.7822 97.2563C35.1778 96.625 35.7133 96.0996 36.3446 95.7233C36.9759 95.347 37.685 95.1307 38.4134 95.092C39.023 95.092 39.6195 95.1989 40.2031 95.386C53.7425 99.4873 67.7877 101.558 81.9106 101.531H82.3645C96.4875 101.558 110.533 99.4873 124.072 95.386C124.656 95.1989 125.252 95.092 125.862 95.092C127.34 95.1722 128.702 95.9738 129.506 97.2563C131.905 100.275 129.143 110.709 129.143 110.709C129.947 109.28 130.751 107.81 131.425 106.287C132.904 102.934 134.188 99.0598 132.424 95.6932Z" fill="#EB8F00"/>
<defs>
<radialGradient id="paint0_radial" cx="0" cy="0" r="1" gradientUnits="userSpaceOnUse" gradientTransform="translate(82.2187 84.6789) scale(73.87 76.095)">
<stop offset="0.5" stop-color="#FDE030"/>
<stop offset="0.92" stop-color="#F7C02B"/>
<stop offset="1" stop-color="#F4A223"/>
</radialGradient>
</defs>
</svg>
